<svg width="14" height="16" viewBox="0 0 14 16" fill="none" xmlns="http://www.w3.org/2000/svg">
<path d="M0.293787 1.29183C0.386678 1.19871 0.497029 1.12482 0.61852 1.07441C0.74001 1.024 0.870253 0.998047 1.00179 0.998047C1.13332 0.998047 1.26356 1.024 1.38505 1.07441C1.50654 1.12482 1.6169 1.19871 1.70979 1.29183L7.00179 6.58583L12.2938 1.29183C12.3868 1.19886 12.4971 1.12511 12.6186 1.07479C12.7401 1.02447 12.8703 0.99857 13.0018 0.99857C13.1333 0.99857 13.2635 1.02447 13.385 1.07479C13.5064 1.12511 13.6168 1.19886 13.7098 1.29183C13.8028 1.38481 13.8765 1.49519 13.9268 1.61667C13.9772 1.73815 14.003 1.86835 14.003 1.99983C14.003 2.13132 13.9772 2.26152 13.9268 2.383C13.8765 2.50448 13.8028 2.61486 13.7098 2.70783L8.41579 7.99983L13.7098 13.2918C13.8028 13.3848 13.8765 13.4952 13.9268 13.6167C13.9772 13.7381 14.003 13.8683 14.003 13.9998C14.003 14.1313 13.9772 14.2615 13.9268 14.383C13.8765 14.5045 13.8028 14.6149 13.7098 14.7078C13.6168 14.8008 13.5064 14.8746 13.385 14.9249C13.2635 14.9752 13.1333 15.0011 13.0018 15.0011C12.8703 15.0011 12.7401 14.9752 12.6186 14.9249C12.4971 14.8746 12.3868 14.8008 12.2938 14.7078L7.00179 9.41383L1.70979 14.7078C1.61681 14.8008 1.50643 14.8746 1.38495 14.9249C1.26348 14.9752 1.13327 15.0011 1.00179 15.0011C0.870299 15.0011 0.740099 14.9752 0.61862 14.9249C0.497141 14.8746 0.386763 14.8008 0.293787 14.7078C0.200811 14.6149 0.127058 14.5045 0.0767403 14.383C0.0264221 14.2615 0.000523567 14.1313 0.000523567 13.9998C0.000523567 13.8683 0.0264221 13.7381 0.0767403 13.6167C0.127058 13.4952 0.200811 13.3848 0.293787 13.2918L5.58779 7.99983L0.293787 2.70783C0.200661 2.61494 0.126775 2.50459 0.0763616 2.3831C0.0259488 2.26161 0 2.13137 0 1.99983C0 1.8683 0.0259488 1.73806 0.0763616 1.61657C0.126775 1.49508 0.200661 1.38473 0.293787 1.29183Z" fill="white"/>
</svg>
