<svg width="9" height="14" viewBox="0 0 9 14" fill="none" xmlns="http://www.w3.org/2000/svg">
<path d="M7.8075 5.0275C7.6175 5.0275 7.4275 4.9575 7.2775 4.8075L4.2775 1.8075L1.2775 4.8075C0.9875 5.0975 0.5075 5.0975 0.2175 4.8075C-0.0725 4.5175 -0.0725 4.0375 0.2175 3.7475L3.7475 0.2175C4.0375 -0.0725 4.5175 -0.0725 4.8075 0.2175L8.3375 3.7475C8.6275 4.0375 8.6275 4.5175 8.3375 4.8075C8.1875 4.9575 7.9975 5.0275 7.8075 5.0275Z" fill="#292D32"/>
<path d="M0.747188 7.99984C0.937188 7.99984 1.12719 8.06984 1.27719 8.21984L4.27719 11.2198L7.27719 8.21984C7.56719 7.92984 8.04719 7.92984 8.33719 8.21984C8.62719 8.50984 8.62719 8.98984 8.33719 9.27984L4.80719 12.8098C4.51719 13.0998 4.03719 13.0998 3.74719 12.8098L0.217188 9.27984C-0.0728118 8.98984 -0.0728117 8.50984 0.217188 8.21984C0.367188 8.06984 0.557188 7.99984 0.747188 7.99984Z" fill="#292D32"/>
</svg>
